<svg width="60" height="60" viewBox="0 0 60 60" fill="none" xmlns="http://www.w3.org/2000/svg">
<path d="M47.8717 0H12.1283C5.43002 0 0 5.43002 0 12.1283V47.8717C0 54.57 5.43002 60 12.1283 60H47.8717C54.57 60 60 54.57 60 47.8717V12.1283C60 5.43002 54.57 0 47.8717 0Z" fill="#DFE5EB"/>
<g clip-path="url(#clip0_103_2)">
<path d="M23.989 25.3557V9.0505H23.9657C23.9502 9.01942 23.923 9 23.888 9H17.1165C17.066 9 17.0272 9.03885 17.0233 9.08935L17.0194 9.09712H17V51.451H17.0233L17.0466 51.4238C17.0466 51.4238 17.0194 51.4626 17.0194 51.4859C17.0194 51.5403 17.0622 51.5831 17.1165 51.5831H23.888C23.9424 51.5831 23.9852 51.5403 23.9852 51.4859H23.9929V39.225C23.9813 39.0308 23.9735 38.8404 23.9696 38.6539C24.0551 36.3035 24.3931 33.992 25.6285 32.0029C25.8966 31.5949 26.1957 31.2064 26.5337 30.8296C28.4024 28.7473 31.1451 27.3059 34.0317 25.8879L35.0029 25.4101L23.9968 25.3557H23.989ZM17.1165 9.19425H23.7054L21.4755 10.4452L19.3154 11.6923L17.9402 10.181L17.1088 9.19036C17.1088 9.19036 17.1127 9.19036 17.1165 9.19036V9.19425ZM17.1165 51.3888C17.0894 51.3888 17.0699 51.4005 17.0505 51.416L17.9402 50.3515L19.3232 48.8364L21.4949 50.0874L23.8181 51.3888H17.1165Z" fill="#00274E"/>
<path d="M42.118 9.0505H42.0947C42.0791 9.01942 42.0519 9 42.017 9H35.2455C35.195 9 35.1561 9.03885 35.1522 9.08935V9.09712H35.1328V51.451H35.1561L35.1794 51.4238C35.1794 51.4238 35.1522 51.4626 35.1522 51.4859C35.1522 51.5403 35.195 51.5831 35.2494 51.5831H42.0209C42.0752 51.5831 42.118 51.5403 42.118 51.4859H42.1257V39.225C42.1141 39.0308 42.1063 38.8404 42.1024 38.6539L42.1257 25.3596V9.0505H42.118ZM35.2455 9.19425H41.8344L39.6044 10.4452L37.4444 11.6923L36.0691 10.181L35.2416 9.19036C35.2416 9.19036 35.2455 9.19036 35.2494 9.19036L35.2455 9.19425ZM35.2455 51.3888C35.2183 51.3888 35.1989 51.4005 35.1794 51.416L36.0691 50.3515L37.4521 48.8364L39.6238 50.0874L41.947 51.3888H35.2494H35.2455Z" fill="#00274E"/>
</g>
<defs>
<clipPath id="clip0_103_2">
<rect width="25.1163" height="42.5831" fill="white" transform="translate(17 9)"/>
</clipPath>
</defs>
</svg>
